<mxfile host="app.diagrams.net" modified="2023-05-04T19:09:59.507Z" agent="Mozilla/5.0 (Windows NT 10.0; Win64; x64) AppleWebKit/537.36 (KHTML, like Gecko) Chrome/113.0.0.0 Safari/537.36" etag="M_FPr9MwsvmxCH0Eoc2q" version="21.2.3" type="device">
  <diagram name="Page-1" id="gDqPEwOeBJ4B4ghDHGTp">
    <mxGraphModel dx="880" dy="1663" grid="1" gridSize="10" guides="1" tooltips="1" connect="1" arrows="1" fold="1" page="1" pageScale="1" pageWidth="827" pageHeight="1169" math="0" shadow="0">
      <root>
        <mxCell id="0" />
        <mxCell id="1" parent="0" />
        <mxCell id="o9kefqiTdvMdUMg-I6oA-73" value="" style="ellipse;whiteSpace=wrap;html=1;" parent="1" vertex="1">
          <mxGeometry x="1182.5" y="761.6199999999999" width="60" height="40" as="geometry" />
        </mxCell>
        <mxCell id="Y0LaDZVLSumVNecySCVG-50" style="rounded=0;orthogonalLoop=1;jettySize=auto;html=1;entryX=0;entryY=0.5;entryDx=0;entryDy=0;exitX=1;exitY=0.5;exitDx=0;exitDy=0;endArrow=none;endFill=0;" parent="1" source="o9kefqiTdvMdUMg-I6oA-35" target="Y0LaDZVLSumVNecySCVG-48" edge="1">
          <mxGeometry relative="1" as="geometry" />
        </mxCell>
        <mxCell id="Y0LaDZVLSumVNecySCVG-61" value="N" style="edgeLabel;html=1;align=center;verticalAlign=middle;resizable=0;points=[];" parent="Y0LaDZVLSumVNecySCVG-50" vertex="1" connectable="0">
          <mxGeometry x="0.3728" relative="1" as="geometry">
            <mxPoint x="-30" as="offset" />
          </mxGeometry>
        </mxCell>
        <mxCell id="o9kefqiTdvMdUMg-I6oA-35" value="faz→" style="rhombus;whiteSpace=wrap;html=1;" parent="1" vertex="1">
          <mxGeometry x="525.64" y="220" width="80" height="80" as="geometry" />
        </mxCell>
        <mxCell id="o9kefqiTdvMdUMg-I6oA-3" style="rounded=0;orthogonalLoop=1;jettySize=auto;html=1;entryX=1;entryY=0.5;entryDx=0;entryDy=0;exitX=0;exitY=0.5;exitDx=0;exitDy=0;endArrow=none;endFill=0;" parent="1" source="o9kefqiTdvMdUMg-I6oA-1" target="o9kefqiTdvMdUMg-I6oA-2" edge="1">
          <mxGeometry relative="1" as="geometry" />
        </mxCell>
        <mxCell id="o9kefqiTdvMdUMg-I6oA-6" style="rounded=0;orthogonalLoop=1;jettySize=auto;html=1;exitX=0;exitY=0.5;exitDx=0;exitDy=0;entryX=1;entryY=0.5;entryDx=0;entryDy=0;endArrow=none;endFill=0;" parent="1" source="o9kefqiTdvMdUMg-I6oA-1" target="o9kefqiTdvMdUMg-I6oA-4" edge="1">
          <mxGeometry relative="1" as="geometry" />
        </mxCell>
        <mxCell id="o9kefqiTdvMdUMg-I6oA-36" value="1" style="rounded=0;orthogonalLoop=1;jettySize=auto;html=1;entryX=0;entryY=0.5;entryDx=0;entryDy=0;endArrow=none;endFill=0;exitX=1;exitY=0.5;exitDx=0;exitDy=0;" parent="1" source="o9kefqiTdvMdUMg-I6oA-1" target="o9kefqiTdvMdUMg-I6oA-35" edge="1">
          <mxGeometry relative="1" as="geometry">
            <mxPoint x="458.14" y="120.0344827586207" as="sourcePoint" />
          </mxGeometry>
        </mxCell>
        <mxCell id="o9kefqiTdvMdUMg-I6oA-89" style="edgeStyle=orthogonalEdgeStyle;rounded=0;orthogonalLoop=1;jettySize=auto;html=1;entryX=0;entryY=0.5;entryDx=0;entryDy=0;endArrow=none;endFill=0;exitX=0.5;exitY=0;exitDx=0;exitDy=0;" parent="1" source="o9kefqiTdvMdUMg-I6oA-1" target="o9kefqiTdvMdUMg-I6oA-87" edge="1">
          <mxGeometry relative="1" as="geometry" />
        </mxCell>
        <mxCell id="o9kefqiTdvMdUMg-I6oA-90" value="1" style="edgeLabel;html=1;align=center;verticalAlign=middle;resizable=0;points=[];" parent="o9kefqiTdvMdUMg-I6oA-89" vertex="1" connectable="0">
          <mxGeometry x="0.285" relative="1" as="geometry">
            <mxPoint x="75" as="offset" />
          </mxGeometry>
        </mxCell>
        <mxCell id="H9_7_KovDlHxRIFXxLMO-4" style="rounded=0;orthogonalLoop=1;jettySize=auto;html=1;entryX=0.5;entryY=1;entryDx=0;entryDy=0;exitX=0.5;exitY=0;exitDx=0;exitDy=0;endArrow=none;endFill=0;" parent="1" source="o9kefqiTdvMdUMg-I6oA-1" target="H9_7_KovDlHxRIFXxLMO-3" edge="1">
          <mxGeometry relative="1" as="geometry" />
        </mxCell>
        <mxCell id="Y0LaDZVLSumVNecySCVG-1" value="N" style="edgeLabel;html=1;align=center;verticalAlign=middle;resizable=0;points=[];" parent="H9_7_KovDlHxRIFXxLMO-4" vertex="1" connectable="0">
          <mxGeometry x="0.1647" y="-2" relative="1" as="geometry">
            <mxPoint as="offset" />
          </mxGeometry>
        </mxCell>
        <mxCell id="o9kefqiTdvMdUMg-I6oA-1" value="JOGADOR" style="rounded=0;whiteSpace=wrap;html=1;" parent="1" vertex="1">
          <mxGeometry x="347.89" y="240" width="120" height="40" as="geometry" />
        </mxCell>
        <mxCell id="o9kefqiTdvMdUMg-I6oA-2" value="&lt;u&gt;id&lt;/u&gt;" style="ellipse;whiteSpace=wrap;html=1;" parent="1" vertex="1">
          <mxGeometry x="188" y="160" width="35" height="30" as="geometry" />
        </mxCell>
        <mxCell id="o9kefqiTdvMdUMg-I6oA-4" value="&lt;u&gt;username&lt;/u&gt;" style="ellipse;whiteSpace=wrap;html=1;" parent="1" vertex="1">
          <mxGeometry x="173" y="190" width="70" height="40" as="geometry" />
        </mxCell>
        <mxCell id="o9kefqiTdvMdUMg-I6oA-5" value="&lt;u&gt;email&lt;/u&gt;" style="ellipse;whiteSpace=wrap;html=1;" parent="1" vertex="1">
          <mxGeometry x="188" y="230" width="40" height="40" as="geometry" />
        </mxCell>
        <mxCell id="o9kefqiTdvMdUMg-I6oA-7" style="rounded=0;orthogonalLoop=1;jettySize=auto;html=1;exitX=0;exitY=0.5;exitDx=0;exitDy=0;entryX=1;entryY=0.5;entryDx=0;entryDy=0;endArrow=none;endFill=0;" parent="1" source="o9kefqiTdvMdUMg-I6oA-1" target="o9kefqiTdvMdUMg-I6oA-5" edge="1">
          <mxGeometry relative="1" as="geometry">
            <mxPoint x="414.25" y="230" as="sourcePoint" />
            <mxPoint x="304.25" y="250" as="targetPoint" />
          </mxGeometry>
        </mxCell>
        <mxCell id="o9kefqiTdvMdUMg-I6oA-9" style="rounded=0;orthogonalLoop=1;jettySize=auto;html=1;entryX=1;entryY=0.5;entryDx=0;entryDy=0;endArrow=none;endFill=0;exitX=0;exitY=0.5;exitDx=0;exitDy=0;" parent="1" source="o9kefqiTdvMdUMg-I6oA-1" target="o9kefqiTdvMdUMg-I6oA-8" edge="1">
          <mxGeometry relative="1" as="geometry">
            <mxPoint x="404.25" y="220" as="sourcePoint" />
            <mxPoint x="289.25" y="290" as="targetPoint" />
          </mxGeometry>
        </mxCell>
        <mxCell id="o9kefqiTdvMdUMg-I6oA-10" value="" style="ellipse;whiteSpace=wrap;html=1;" parent="1" vertex="1">
          <mxGeometry x="175.5" y="270" width="67.5" height="40" as="geometry" />
        </mxCell>
        <mxCell id="o9kefqiTdvMdUMg-I6oA-8" value="estado" style="ellipse;whiteSpace=wrap;html=1;" parent="1" vertex="1">
          <mxGeometry x="181.75" y="275" width="55" height="30" as="geometry" />
        </mxCell>
        <mxCell id="o9kefqiTdvMdUMg-I6oA-11" value="&#39;Ativo&#39;" style="text;html=1;strokeColor=none;fillColor=none;align=center;verticalAlign=middle;whiteSpace=wrap;rounded=0;" parent="1" vertex="1">
          <mxGeometry x="83" y="245" width="60" height="30" as="geometry" />
        </mxCell>
        <mxCell id="o9kefqiTdvMdUMg-I6oA-12" value="&#39;Inativo&#39;" style="text;html=1;strokeColor=none;fillColor=none;align=center;verticalAlign=middle;whiteSpace=wrap;rounded=0;" parent="1" vertex="1">
          <mxGeometry x="83" y="275" width="60" height="30" as="geometry" />
        </mxCell>
        <mxCell id="o9kefqiTdvMdUMg-I6oA-13" value="&#39;Banido&#39;" style="text;html=1;strokeColor=none;fillColor=none;align=center;verticalAlign=middle;whiteSpace=wrap;rounded=0;" parent="1" vertex="1">
          <mxGeometry x="83" y="305" width="60" height="30" as="geometry" />
        </mxCell>
        <mxCell id="o9kefqiTdvMdUMg-I6oA-16" style="rounded=0;orthogonalLoop=1;jettySize=auto;html=1;entryX=1;entryY=0.5;entryDx=0;entryDy=0;endArrow=none;endFill=0;exitX=0;exitY=0.5;exitDx=0;exitDy=0;" parent="1" source="o9kefqiTdvMdUMg-I6oA-10" target="o9kefqiTdvMdUMg-I6oA-11" edge="1">
          <mxGeometry relative="1" as="geometry">
            <mxPoint x="363" y="200" as="sourcePoint" />
            <mxPoint x="247" y="300" as="targetPoint" />
          </mxGeometry>
        </mxCell>
        <mxCell id="o9kefqiTdvMdUMg-I6oA-17" style="rounded=0;orthogonalLoop=1;jettySize=auto;html=1;entryX=1;entryY=0.5;entryDx=0;entryDy=0;endArrow=none;endFill=0;exitX=0;exitY=0.5;exitDx=0;exitDy=0;" parent="1" source="o9kefqiTdvMdUMg-I6oA-10" target="o9kefqiTdvMdUMg-I6oA-12" edge="1">
          <mxGeometry relative="1" as="geometry">
            <mxPoint x="186" y="300" as="sourcePoint" />
            <mxPoint x="148" y="270" as="targetPoint" />
          </mxGeometry>
        </mxCell>
        <mxCell id="o9kefqiTdvMdUMg-I6oA-18" style="rounded=0;orthogonalLoop=1;jettySize=auto;html=1;entryX=1;entryY=0.5;entryDx=0;entryDy=0;endArrow=none;endFill=0;exitX=0;exitY=0.5;exitDx=0;exitDy=0;" parent="1" source="o9kefqiTdvMdUMg-I6oA-10" target="o9kefqiTdvMdUMg-I6oA-13" edge="1">
          <mxGeometry relative="1" as="geometry">
            <mxPoint x="196" y="310" as="sourcePoint" />
            <mxPoint x="158" y="280" as="targetPoint" />
          </mxGeometry>
        </mxCell>
        <mxCell id="o9kefqiTdvMdUMg-I6oA-19" value="regiao" style="ellipse;whiteSpace=wrap;html=1;" parent="1" vertex="1">
          <mxGeometry x="181.75" y="365" width="55" height="30" as="geometry" />
        </mxCell>
        <mxCell id="o9kefqiTdvMdUMg-I6oA-20" style="rounded=0;orthogonalLoop=1;jettySize=auto;html=1;entryX=1;entryY=0.5;entryDx=0;entryDy=0;endArrow=none;endFill=0;exitX=0;exitY=0.5;exitDx=0;exitDy=0;" parent="1" source="o9kefqiTdvMdUMg-I6oA-1" target="o9kefqiTdvMdUMg-I6oA-107" edge="1">
          <mxGeometry relative="1" as="geometry">
            <mxPoint x="414.25" y="280" as="sourcePoint" />
            <mxPoint x="298.25" y="330" as="targetPoint" />
          </mxGeometry>
        </mxCell>
        <mxCell id="Y0LaDZVLSumVNecySCVG-74" value="N" style="rounded=0;orthogonalLoop=1;jettySize=auto;html=1;entryX=0.5;entryY=1;entryDx=0;entryDy=0;endArrow=none;endFill=0;" parent="1" source="o9kefqiTdvMdUMg-I6oA-21" target="Y0LaDZVLSumVNecySCVG-72" edge="1">
          <mxGeometry relative="1" as="geometry" />
        </mxCell>
        <mxCell id="o9kefqiTdvMdUMg-I6oA-21" value="JOGO" style="rounded=0;whiteSpace=wrap;html=1;" parent="1" vertex="1">
          <mxGeometry x="1060" y="240" width="120" height="40" as="geometry" />
        </mxCell>
        <mxCell id="o9kefqiTdvMdUMg-I6oA-22" value="&lt;u&gt;id&lt;/u&gt;" style="ellipse;whiteSpace=wrap;html=1;" parent="1" vertex="1">
          <mxGeometry x="1280.29" y="185" width="36.47" height="30" as="geometry" />
        </mxCell>
        <mxCell id="o9kefqiTdvMdUMg-I6oA-23" style="rounded=0;orthogonalLoop=1;jettySize=auto;html=1;entryX=0;entryY=0.5;entryDx=0;entryDy=0;endArrow=none;endFill=0;exitX=1;exitY=0.5;exitDx=0;exitDy=0;" parent="1" source="o9kefqiTdvMdUMg-I6oA-21" target="o9kefqiTdvMdUMg-I6oA-22" edge="1">
          <mxGeometry relative="1" as="geometry">
            <mxPoint x="1208.96" y="260" as="sourcePoint" />
            <mxPoint x="1299.6499999999996" y="325" as="targetPoint" />
          </mxGeometry>
        </mxCell>
        <mxCell id="o9kefqiTdvMdUMg-I6oA-24" value="&lt;u&gt;url&lt;/u&gt;" style="ellipse;whiteSpace=wrap;html=1;" parent="1" vertex="1">
          <mxGeometry x="1283.5299999999997" y="215" width="30" height="30" as="geometry" />
        </mxCell>
        <mxCell id="o9kefqiTdvMdUMg-I6oA-25" style="rounded=0;orthogonalLoop=1;jettySize=auto;html=1;entryX=0;entryY=0.5;entryDx=0;entryDy=0;endArrow=none;endFill=0;exitX=1;exitY=0.5;exitDx=0;exitDy=0;" parent="1" source="o9kefqiTdvMdUMg-I6oA-21" target="o9kefqiTdvMdUMg-I6oA-24" edge="1">
          <mxGeometry relative="1" as="geometry">
            <mxPoint x="1208.96" y="260" as="sourcePoint" />
            <mxPoint x="1299.6499999999996" y="360" as="targetPoint" />
          </mxGeometry>
        </mxCell>
        <mxCell id="o9kefqiTdvMdUMg-I6oA-26" value="&lt;u&gt;nome&lt;/u&gt;" style="ellipse;whiteSpace=wrap;html=1;" parent="1" vertex="1">
          <mxGeometry x="1273.5299999999997" y="245" width="50" height="30" as="geometry" />
        </mxCell>
        <mxCell id="o9kefqiTdvMdUMg-I6oA-27" style="rounded=0;orthogonalLoop=1;jettySize=auto;html=1;entryX=0;entryY=0.5;entryDx=0;entryDy=0;endArrow=none;endFill=0;exitX=1;exitY=0.5;exitDx=0;exitDy=0;" parent="1" source="o9kefqiTdvMdUMg-I6oA-21" target="o9kefqiTdvMdUMg-I6oA-26" edge="1">
          <mxGeometry relative="1" as="geometry">
            <mxPoint x="1208.96" y="260" as="sourcePoint" />
            <mxPoint x="1284.3999999999996" y="365" as="targetPoint" />
          </mxGeometry>
        </mxCell>
        <mxCell id="o9kefqiTdvMdUMg-I6oA-31" value="data" style="ellipse;whiteSpace=wrap;html=1;" parent="1" vertex="1">
          <mxGeometry x="730" y="315" width="40" height="30" as="geometry" />
        </mxCell>
        <mxCell id="o9kefqiTdvMdUMg-I6oA-32" value="preco" style="ellipse;whiteSpace=wrap;html=1;" parent="1" vertex="1">
          <mxGeometry x="774.37" y="315" width="40" height="30" as="geometry" />
        </mxCell>
        <mxCell id="o9kefqiTdvMdUMg-I6oA-33" style="rounded=0;orthogonalLoop=1;jettySize=auto;html=1;entryX=0.5;entryY=0;entryDx=0;entryDy=0;endArrow=none;endFill=0;exitX=0.5;exitY=1;exitDx=0;exitDy=0;" parent="1" source="Y0LaDZVLSumVNecySCVG-48" target="o9kefqiTdvMdUMg-I6oA-32" edge="1">
          <mxGeometry relative="1" as="geometry">
            <mxPoint x="813.7600000000001" y="130" as="sourcePoint" />
            <mxPoint x="1142.1299999999999" y="205" as="targetPoint" />
          </mxGeometry>
        </mxCell>
        <mxCell id="o9kefqiTdvMdUMg-I6oA-34" style="rounded=0;orthogonalLoop=1;jettySize=auto;html=1;entryX=0.5;entryY=0;entryDx=0;entryDy=0;endArrow=none;endFill=0;exitX=0.5;exitY=1;exitDx=0;exitDy=0;" parent="1" source="Y0LaDZVLSumVNecySCVG-48" target="o9kefqiTdvMdUMg-I6oA-31" edge="1">
          <mxGeometry relative="1" as="geometry">
            <mxPoint x="773.76" y="100" as="sourcePoint" />
            <mxPoint x="808.01" y="245" as="targetPoint" />
          </mxGeometry>
        </mxCell>
        <mxCell id="o9kefqiTdvMdUMg-I6oA-53" style="rounded=0;orthogonalLoop=1;jettySize=auto;html=1;endArrow=none;endFill=0;exitX=0.5;exitY=1;exitDx=0;exitDy=0;entryX=0.5;entryY=0;entryDx=0;entryDy=0;" parent="1" source="Y0LaDZVLSumVNecySCVG-38" target="o9kefqiTdvMdUMg-I6oA-52" edge="1">
          <mxGeometry relative="1" as="geometry">
            <mxPoint x="1116.5" y="613.61" as="targetPoint" />
          </mxGeometry>
        </mxCell>
        <mxCell id="Y0LaDZVLSumVNecySCVG-39" style="rounded=0;orthogonalLoop=1;jettySize=auto;html=1;exitX=0.5;exitY=1;exitDx=0;exitDy=0;entryX=0.5;entryY=0;entryDx=0;entryDy=0;endArrow=none;endFill=0;" parent="1" source="o9kefqiTdvMdUMg-I6oA-38" target="Y0LaDZVLSumVNecySCVG-38" edge="1">
          <mxGeometry relative="1" as="geometry">
            <mxPoint x="1379.3199999999997" y="514.9999999999995" as="sourcePoint" />
          </mxGeometry>
        </mxCell>
        <mxCell id="Y0LaDZVLSumVNecySCVG-52" value="N" style="edgeLabel;html=1;align=center;verticalAlign=middle;resizable=0;points=[];" parent="Y0LaDZVLSumVNecySCVG-39" vertex="1" connectable="0">
          <mxGeometry x="-0.234" relative="1" as="geometry">
            <mxPoint as="offset" />
          </mxGeometry>
        </mxCell>
        <mxCell id="o9kefqiTdvMdUMg-I6oA-38" value="joga-se&lt;br&gt;↓" style="rhombus;whiteSpace=wrap;html=1;" parent="1" vertex="1">
          <mxGeometry x="1080" y="345" width="80" height="80" as="geometry" />
        </mxCell>
        <mxCell id="o9kefqiTdvMdUMg-I6oA-41" value="&lt;u&gt;id&lt;/u&gt;" style="ellipse;whiteSpace=wrap;html=1;" parent="1" vertex="1">
          <mxGeometry x="1270" y="445" width="30" height="30" as="geometry" />
        </mxCell>
        <mxCell id="o9kefqiTdvMdUMg-I6oA-43" value="date_time_init" style="ellipse;whiteSpace=wrap;html=1;" parent="1" vertex="1">
          <mxGeometry x="1243.06" y="535.9" width="90" height="30" as="geometry" />
        </mxCell>
        <mxCell id="o9kefqiTdvMdUMg-I6oA-46" value="date_time_end" style="ellipse;whiteSpace=wrap;html=1;" parent="1" vertex="1">
          <mxGeometry x="1243.06" y="505.9" width="90" height="30" as="geometry" />
        </mxCell>
        <mxCell id="o9kefqiTdvMdUMg-I6oA-50" value="1" style="rounded=0;orthogonalLoop=1;jettySize=auto;html=1;entryX=0.5;entryY=1;entryDx=0;entryDy=0;endArrow=none;endFill=0;exitX=0.5;exitY=0;exitDx=0;exitDy=0;" parent="1" source="o9kefqiTdvMdUMg-I6oA-38" target="o9kefqiTdvMdUMg-I6oA-21" edge="1">
          <mxGeometry relative="1" as="geometry">
            <mxPoint x="1113.0999999999997" y="360" as="sourcePoint" />
            <mxPoint x="679.48" y="140" as="targetPoint" />
          </mxGeometry>
        </mxCell>
        <mxCell id="o9kefqiTdvMdUMg-I6oA-58" style="rounded=0;orthogonalLoop=1;jettySize=auto;html=1;entryX=0.5;entryY=0;entryDx=0;entryDy=0;endArrow=none;endFill=0;exitX=0.5;exitY=1;exitDx=0;exitDy=0;" parent="1" source="o9kefqiTdvMdUMg-I6oA-52" target="o9kefqiTdvMdUMg-I6oA-57" edge="1">
          <mxGeometry relative="1" as="geometry" />
        </mxCell>
        <mxCell id="o9kefqiTdvMdUMg-I6oA-60" style="rounded=0;orthogonalLoop=1;jettySize=auto;html=1;entryX=0.5;entryY=0;entryDx=0;entryDy=0;endArrow=none;endFill=0;exitX=0.5;exitY=1;exitDx=0;exitDy=0;" parent="1" source="o9kefqiTdvMdUMg-I6oA-52" target="o9kefqiTdvMdUMg-I6oA-56" edge="1">
          <mxGeometry relative="1" as="geometry" />
        </mxCell>
        <mxCell id="o9kefqiTdvMdUMg-I6oA-52" value="&lt;font style=&quot;font-size: 14px;&quot;&gt;D&lt;/font&gt;" style="ellipse;whiteSpace=wrap;html=1;" parent="1" vertex="1">
          <mxGeometry x="1105" y="621.2899999999998" width="30" height="30" as="geometry" />
        </mxCell>
        <mxCell id="o9kefqiTdvMdUMg-I6oA-56" value="PARTIDA_MULTIJOGADOR" style="rounded=0;whiteSpace=wrap;html=1;" parent="1" vertex="1">
          <mxGeometry x="1135" y="691.2899999999998" width="155" height="30" as="geometry" />
        </mxCell>
        <mxCell id="PEW9V024uj19wOXFV4pj-3" style="edgeStyle=orthogonalEdgeStyle;rounded=0;orthogonalLoop=1;jettySize=auto;html=1;entryX=0.5;entryY=0;entryDx=0;entryDy=0;endArrow=none;endFill=0;curved=1;" parent="1" source="o9kefqiTdvMdUMg-I6oA-57" target="o9kefqiTdvMdUMg-I6oA-68" edge="1">
          <mxGeometry relative="1" as="geometry" />
        </mxCell>
        <mxCell id="o9kefqiTdvMdUMg-I6oA-57" value="PARTIDA_NORMAL" style="rounded=0;whiteSpace=wrap;html=1;" parent="1" vertex="1">
          <mxGeometry x="980" y="691.2899999999998" width="120" height="30" as="geometry" />
        </mxCell>
        <mxCell id="o9kefqiTdvMdUMg-I6oA-62" value="" style="verticalLabelPosition=bottom;verticalAlign=top;html=1;shape=mxgraph.basic.arc;startAngle=0.5015914963824541;endAngle=0.9968173254495136;rotation=-45;fillStyle=solid;" parent="1" vertex="1">
          <mxGeometry x="1075" y="651.2899999999998" width="30" height="30" as="geometry" />
        </mxCell>
        <mxCell id="o9kefqiTdvMdUMg-I6oA-66" value="" style="verticalLabelPosition=bottom;verticalAlign=top;html=1;shape=mxgraph.basic.arc;startAngle=0.5015914963824541;endAngle=0.9968173254495136;rotation=-150;fillStyle=solid;" parent="1" vertex="1">
          <mxGeometry x="1130" y="651.2899999999998" width="30" height="30" as="geometry" />
        </mxCell>
        <mxCell id="o9kefqiTdvMdUMg-I6oA-68" value="dificuldade (1-5)" style="ellipse;whiteSpace=wrap;html=1;" parent="1" vertex="1">
          <mxGeometry x="988.38" y="757.9799999999999" width="103.25" height="30" as="geometry" />
        </mxCell>
        <mxCell id="o9kefqiTdvMdUMg-I6oA-70" value="estado" style="ellipse;whiteSpace=wrap;html=1;" parent="1" vertex="1">
          <mxGeometry x="1187.5" y="766.6199999999999" width="50" height="30" as="geometry" />
        </mxCell>
        <mxCell id="o9kefqiTdvMdUMg-I6oA-72" style="rounded=0;orthogonalLoop=1;jettySize=auto;html=1;endArrow=none;endFill=0;exitX=0.5;exitY=1;exitDx=0;exitDy=0;entryX=0.5;entryY=0;entryDx=0;entryDy=0;" parent="1" source="o9kefqiTdvMdUMg-I6oA-56" target="o9kefqiTdvMdUMg-I6oA-73" edge="1">
          <mxGeometry relative="1" as="geometry">
            <mxPoint x="1070" y="731.2899999999998" as="sourcePoint" />
            <mxPoint x="1175" y="741.2899999999998" as="targetPoint" />
          </mxGeometry>
        </mxCell>
        <mxCell id="o9kefqiTdvMdUMg-I6oA-74" value="‘Por iniciar’" style="text;html=1;strokeColor=none;fillColor=none;align=center;verticalAlign=middle;whiteSpace=wrap;rounded=0;" parent="1" vertex="1">
          <mxGeometry x="1160" y="838.6099999999999" width="70" height="30" as="geometry" />
        </mxCell>
        <mxCell id="o9kefqiTdvMdUMg-I6oA-75" value="‘A aguardar jogadores’" style="text;html=1;strokeColor=none;fillColor=none;align=center;verticalAlign=middle;whiteSpace=wrap;rounded=0;" parent="1" vertex="1">
          <mxGeometry x="1014.96" y="838.6099999999999" width="130" height="30" as="geometry" />
        </mxCell>
        <mxCell id="o9kefqiTdvMdUMg-I6oA-76" value="‘Em curso’" style="text;html=1;strokeColor=none;fillColor=none;align=center;verticalAlign=middle;whiteSpace=wrap;rounded=0;" parent="1" vertex="1">
          <mxGeometry x="1240" y="838.6099999999999" width="60" height="30" as="geometry" />
        </mxCell>
        <mxCell id="o9kefqiTdvMdUMg-I6oA-77" value="‘Terminada’" style="text;html=1;strokeColor=none;fillColor=none;align=center;verticalAlign=middle;whiteSpace=wrap;rounded=0;" parent="1" vertex="1">
          <mxGeometry x="1323.28" y="838.6099999999999" width="60" height="30" as="geometry" />
        </mxCell>
        <mxCell id="o9kefqiTdvMdUMg-I6oA-79" style="rounded=0;orthogonalLoop=1;jettySize=auto;html=1;endArrow=none;endFill=0;exitX=0.5;exitY=1;exitDx=0;exitDy=0;entryX=0.5;entryY=0;entryDx=0;entryDy=0;" parent="1" source="o9kefqiTdvMdUMg-I6oA-73" target="o9kefqiTdvMdUMg-I6oA-75" edge="1">
          <mxGeometry relative="1" as="geometry">
            <mxPoint x="1216.7" y="748.6099999999999" as="sourcePoint" />
            <mxPoint x="1216.7" y="773.6099999999999" as="targetPoint" />
          </mxGeometry>
        </mxCell>
        <mxCell id="o9kefqiTdvMdUMg-I6oA-81" style="rounded=0;orthogonalLoop=1;jettySize=auto;html=1;endArrow=none;endFill=0;exitX=0.5;exitY=1;exitDx=0;exitDy=0;entryX=0.5;entryY=0;entryDx=0;entryDy=0;" parent="1" source="o9kefqiTdvMdUMg-I6oA-73" target="o9kefqiTdvMdUMg-I6oA-74" edge="1">
          <mxGeometry relative="1" as="geometry">
            <mxPoint x="1216.7" y="813.6099999999999" as="sourcePoint" />
            <mxPoint x="1084.7" y="848.6099999999999" as="targetPoint" />
          </mxGeometry>
        </mxCell>
        <mxCell id="o9kefqiTdvMdUMg-I6oA-82" style="rounded=0;orthogonalLoop=1;jettySize=auto;html=1;endArrow=none;endFill=0;exitX=0.5;exitY=1;exitDx=0;exitDy=0;entryX=0.5;entryY=0;entryDx=0;entryDy=0;" parent="1" source="o9kefqiTdvMdUMg-I6oA-73" target="o9kefqiTdvMdUMg-I6oA-76" edge="1">
          <mxGeometry relative="1" as="geometry">
            <mxPoint x="1216.7" y="813.6099999999999" as="sourcePoint" />
            <mxPoint x="1211.7" y="848.6099999999999" as="targetPoint" />
          </mxGeometry>
        </mxCell>
        <mxCell id="o9kefqiTdvMdUMg-I6oA-83" style="rounded=0;orthogonalLoop=1;jettySize=auto;html=1;endArrow=none;endFill=0;exitX=0.5;exitY=1;exitDx=0;exitDy=0;entryX=0.5;entryY=0;entryDx=0;entryDy=0;" parent="1" source="o9kefqiTdvMdUMg-I6oA-73" target="o9kefqiTdvMdUMg-I6oA-77" edge="1">
          <mxGeometry relative="1" as="geometry">
            <mxPoint x="1216.7" y="813.6099999999999" as="sourcePoint" />
            <mxPoint x="1276.7" y="848.6099999999999" as="targetPoint" />
          </mxGeometry>
        </mxCell>
        <mxCell id="o9kefqiTdvMdUMg-I6oA-92" value="N" style="edgeStyle=orthogonalEdgeStyle;rounded=0;orthogonalLoop=1;jettySize=auto;html=1;entryX=0;entryY=0.5;entryDx=0;entryDy=0;endArrow=none;endFill=0;" parent="1" source="o9kefqiTdvMdUMg-I6oA-87" target="o9kefqiTdvMdUMg-I6oA-91" edge="1">
          <mxGeometry relative="1" as="geometry">
            <mxPoint x="601.42" y="40" as="sourcePoint" />
          </mxGeometry>
        </mxCell>
        <mxCell id="o9kefqiTdvMdUMg-I6oA-88" value="num&lt;br&gt;→" style="rhombus;whiteSpace=wrap;html=1;" parent="1" vertex="1">
          <mxGeometry x="929.51" width="80" height="80" as="geometry" />
        </mxCell>
        <mxCell id="o9kefqiTdvMdUMg-I6oA-93" style="edgeStyle=orthogonalEdgeStyle;rounded=0;orthogonalLoop=1;jettySize=auto;html=1;entryX=0;entryY=0.5;entryDx=0;entryDy=0;endArrow=none;endFill=0;" parent="1" source="o9kefqiTdvMdUMg-I6oA-91" target="o9kefqiTdvMdUMg-I6oA-88" edge="1">
          <mxGeometry relative="1" as="geometry" />
        </mxCell>
        <mxCell id="o9kefqiTdvMdUMg-I6oA-96" value="N" style="edgeLabel;html=1;align=center;verticalAlign=middle;resizable=0;points=[];" parent="o9kefqiTdvMdUMg-I6oA-93" vertex="1" connectable="0">
          <mxGeometry x="0.1567" y="2" relative="1" as="geometry">
            <mxPoint x="-2" y="2" as="offset" />
          </mxGeometry>
        </mxCell>
        <mxCell id="o9kefqiTdvMdUMg-I6oA-91" value="CRACHAS_ATRIBUIDOS" style="rounded=0;whiteSpace=wrap;html=1;" parent="1" vertex="1">
          <mxGeometry x="722.63" y="20" width="165.75" height="40" as="geometry" />
        </mxCell>
        <mxCell id="o9kefqiTdvMdUMg-I6oA-94" value="1" style="edgeStyle=orthogonalEdgeStyle;rounded=0;orthogonalLoop=1;jettySize=auto;html=1;entryX=1;entryY=0.5;entryDx=0;entryDy=0;endArrow=none;endFill=0;exitX=0.5;exitY=0;exitDx=0;exitDy=0;" parent="1" source="o9kefqiTdvMdUMg-I6oA-21" target="o9kefqiTdvMdUMg-I6oA-88" edge="1">
          <mxGeometry x="0.7353" relative="1" as="geometry">
            <mxPoint x="902.45" y="10" as="sourcePoint" />
            <mxPoint x="1002.45" y="10" as="targetPoint" />
            <mxPoint as="offset" />
          </mxGeometry>
        </mxCell>
        <mxCell id="o9kefqiTdvMdUMg-I6oA-95" value="" style="rounded=0;whiteSpace=wrap;html=1;fillColor=none;" parent="1" vertex="1">
          <mxGeometry x="732.63" y="25" width="145.75" height="30" as="geometry" />
        </mxCell>
        <mxCell id="o9kefqiTdvMdUMg-I6oA-99" value="" style="rounded=0;orthogonalLoop=1;jettySize=auto;html=1;exitX=0.5;exitY=0;exitDx=0;exitDy=0;entryX=0.5;entryY=1;entryDx=0;entryDy=0;endArrow=none;endFill=0;" parent="1" source="o9kefqiTdvMdUMg-I6oA-98" target="o9kefqiTdvMdUMg-I6oA-91" edge="1">
          <mxGeometry relative="1" as="geometry" />
        </mxCell>
        <mxCell id="o9kefqiTdvMdUMg-I6oA-98" value="&lt;u&gt;id_jogo&lt;br&gt;&lt;/u&gt;(FK)&lt;u&gt;&lt;br&gt;&lt;/u&gt;" style="ellipse;whiteSpace=wrap;html=1;" parent="1" vertex="1">
          <mxGeometry x="775.57" y="95" width="59.88" height="40" as="geometry" />
        </mxCell>
        <mxCell id="o9kefqiTdvMdUMg-I6oA-100" value="" style="rounded=0;orthogonalLoop=1;jettySize=auto;html=1;endArrow=none;endFill=0;exitX=0.5;exitY=0;exitDx=0;exitDy=0;entryX=0.5;entryY=1;entryDx=0;entryDy=0;" parent="1" source="o9kefqiTdvMdUMg-I6oA-101" target="o9kefqiTdvMdUMg-I6oA-91" edge="1">
          <mxGeometry relative="1" as="geometry">
            <mxPoint x="772.63" y="-50" as="sourcePoint" />
            <mxPoint x="782.63" y="20" as="targetPoint" />
          </mxGeometry>
        </mxCell>
        <mxCell id="o9kefqiTdvMdUMg-I6oA-101" value="&lt;u&gt;nome&lt;br&gt;&lt;/u&gt;(FK)&lt;u&gt;&lt;br&gt;&lt;/u&gt;" style="ellipse;whiteSpace=wrap;html=1;" parent="1" vertex="1">
          <mxGeometry x="836.76" y="95" width="51.62" height="40" as="geometry" />
        </mxCell>
        <mxCell id="o9kefqiTdvMdUMg-I6oA-102" value="url" style="ellipse;whiteSpace=wrap;html=1;" parent="1" vertex="1">
          <mxGeometry x="1094.96" y="-210" width="40" height="30" as="geometry" />
        </mxCell>
        <mxCell id="o9kefqiTdvMdUMg-I6oA-103" value="" style="rounded=0;orthogonalLoop=1;jettySize=auto;html=1;endArrow=none;endFill=0;exitX=0.5;exitY=1;exitDx=0;exitDy=0;entryX=0.5;entryY=0;entryDx=0;entryDy=0;" parent="1" source="o9kefqiTdvMdUMg-I6oA-102" target="Y0LaDZVLSumVNecySCVG-69" edge="1">
          <mxGeometry relative="1" as="geometry">
            <mxPoint x="782.63" y="-40" as="sourcePoint" />
            <mxPoint x="782.63" y="20" as="targetPoint" />
          </mxGeometry>
        </mxCell>
        <mxCell id="o9kefqiTdvMdUMg-I6oA-104" value="&lt;font style=&quot;font-size: 7px;&quot;&gt;isjoint&lt;/font&gt;" style="text;html=1;strokeColor=none;fillColor=none;align=center;verticalAlign=middle;whiteSpace=wrap;rounded=0;" parent="1" vertex="1">
          <mxGeometry x="1105" y="621.2899999999998" width="60" height="30" as="geometry" />
        </mxCell>
        <mxCell id="o9kefqiTdvMdUMg-I6oA-105" value="&lt;u&gt;id&lt;/u&gt;" style="ellipse;whiteSpace=wrap;html=1;" parent="1" vertex="1">
          <mxGeometry x="690" y="315" width="40" height="30" as="geometry" />
        </mxCell>
        <mxCell id="o9kefqiTdvMdUMg-I6oA-106" style="rounded=0;orthogonalLoop=1;jettySize=auto;html=1;entryX=0.5;entryY=0;entryDx=0;entryDy=0;endArrow=none;endFill=0;exitX=0.5;exitY=1;exitDx=0;exitDy=0;" parent="1" source="Y0LaDZVLSumVNecySCVG-48" target="o9kefqiTdvMdUMg-I6oA-105" edge="1">
          <mxGeometry relative="1" as="geometry">
            <mxPoint x="753.76" y="100" as="sourcePoint" />
            <mxPoint x="788.01" y="90" as="targetPoint" />
          </mxGeometry>
        </mxCell>
        <mxCell id="o9kefqiTdvMdUMg-I6oA-107" value="" style="ellipse;whiteSpace=wrap;html=1;fillColor=none;" parent="1" vertex="1">
          <mxGeometry x="175.5" y="360" width="67.5" height="40" as="geometry" />
        </mxCell>
        <mxCell id="o9kefqiTdvMdUMg-I6oA-108" value="&#39;EU&#39;" style="text;html=1;strokeColor=none;fillColor=none;align=center;verticalAlign=middle;whiteSpace=wrap;rounded=0;" parent="1" vertex="1">
          <mxGeometry x="83" y="335" width="57" height="30" as="geometry" />
        </mxCell>
        <mxCell id="o9kefqiTdvMdUMg-I6oA-109" value="&#39;NA&#39;" style="text;html=1;strokeColor=none;fillColor=none;align=center;verticalAlign=middle;whiteSpace=wrap;rounded=0;" parent="1" vertex="1">
          <mxGeometry x="80" y="365" width="60" height="30" as="geometry" />
        </mxCell>
        <mxCell id="o9kefqiTdvMdUMg-I6oA-110" value="&#39;ASIA&#39;" style="text;html=1;strokeColor=none;fillColor=none;align=center;verticalAlign=middle;whiteSpace=wrap;rounded=0;" parent="1" vertex="1">
          <mxGeometry x="80" y="395" width="60" height="30" as="geometry" />
        </mxCell>
        <mxCell id="o9kefqiTdvMdUMg-I6oA-111" style="rounded=0;orthogonalLoop=1;jettySize=auto;html=1;entryX=1;entryY=0.5;entryDx=0;entryDy=0;endArrow=none;endFill=0;exitX=0;exitY=0.5;exitDx=0;exitDy=0;" parent="1" source="o9kefqiTdvMdUMg-I6oA-107" target="o9kefqiTdvMdUMg-I6oA-108" edge="1">
          <mxGeometry relative="1" as="geometry">
            <mxPoint x="173" y="380" as="sourcePoint" />
            <mxPoint x="244" y="390" as="targetPoint" />
          </mxGeometry>
        </mxCell>
        <mxCell id="o9kefqiTdvMdUMg-I6oA-112" style="rounded=0;orthogonalLoop=1;jettySize=auto;html=1;entryX=1;entryY=0.5;entryDx=0;entryDy=0;endArrow=none;endFill=0;exitX=0;exitY=0.5;exitDx=0;exitDy=0;" parent="1" source="o9kefqiTdvMdUMg-I6oA-107" target="o9kefqiTdvMdUMg-I6oA-109" edge="1">
          <mxGeometry relative="1" as="geometry">
            <mxPoint x="173" y="380" as="sourcePoint" />
            <mxPoint x="145" y="360" as="targetPoint" />
          </mxGeometry>
        </mxCell>
        <mxCell id="o9kefqiTdvMdUMg-I6oA-113" style="rounded=0;orthogonalLoop=1;jettySize=auto;html=1;entryX=1;entryY=0.5;entryDx=0;entryDy=0;endArrow=none;endFill=0;exitX=0;exitY=0.5;exitDx=0;exitDy=0;" parent="1" source="o9kefqiTdvMdUMg-I6oA-107" target="o9kefqiTdvMdUMg-I6oA-110" edge="1">
          <mxGeometry relative="1" as="geometry">
            <mxPoint x="173" y="380" as="sourcePoint" />
            <mxPoint x="155" y="370" as="targetPoint" />
          </mxGeometry>
        </mxCell>
        <mxCell id="Y0LaDZVLSumVNecySCVG-53" value="1" style="edgeStyle=orthogonalEdgeStyle;rounded=0;orthogonalLoop=1;jettySize=auto;html=1;entryX=0;entryY=0.5;entryDx=0;entryDy=0;endArrow=none;endFill=0;exitX=0.978;exitY=0.502;exitDx=0;exitDy=0;exitPerimeter=0;" parent="1" source="PEW9V024uj19wOXFV4pj-7" target="Y0LaDZVLSumVNecySCVG-38" edge="1">
          <mxGeometry relative="1" as="geometry">
            <mxPoint x="985.74" y="536.66" as="sourcePoint" />
          </mxGeometry>
        </mxCell>
        <mxCell id="Y0LaDZVLSumVNecySCVG-60" style="rounded=0;orthogonalLoop=1;jettySize=auto;html=1;entryX=1;entryY=0.5;entryDx=0;entryDy=0;endArrow=none;endFill=0;exitX=0;exitY=0.5;exitDx=0;exitDy=0;" parent="1" source="PEW9V024uj19wOXFV4pj-7" target="PEW9V024uj19wOXFV4pj-9" edge="1">
          <mxGeometry relative="1" as="geometry" />
        </mxCell>
        <mxCell id="Y0LaDZVLSumVNecySCVG-62" value="1" style="edgeLabel;html=1;align=center;verticalAlign=middle;resizable=0;points=[];" parent="Y0LaDZVLSumVNecySCVG-60" vertex="1" connectable="0">
          <mxGeometry x="-0.191" relative="1" as="geometry">
            <mxPoint as="offset" />
          </mxGeometry>
        </mxCell>
        <mxCell id="PEW9V024uj19wOXFV4pj-7" value="←tem" style="rhombus;whiteSpace=wrap;html=1;" parent="1" vertex="1">
          <mxGeometry x="944.6199999999999" y="488.84" width="80" height="80" as="geometry" />
        </mxCell>
        <mxCell id="PEW9V024uj19wOXFV4pj-18" style="rounded=0;orthogonalLoop=1;jettySize=auto;html=1;entryX=0.5;entryY=0;entryDx=0;entryDy=0;endArrow=none;endFill=0;exitX=0.5;exitY=1;exitDx=0;exitDy=0;" parent="1" source="PEW9V024uj19wOXFV4pj-9" target="PEW9V024uj19wOXFV4pj-17" edge="1">
          <mxGeometry relative="1" as="geometry">
            <mxPoint x="737.6299999999998" y="578.6100000000001" as="targetPoint" />
          </mxGeometry>
        </mxCell>
        <mxCell id="PEW9V024uj19wOXFV4pj-9" value="PONTUACAO_JOGADOR" style="rounded=0;whiteSpace=wrap;html=1;" parent="1" vertex="1">
          <mxGeometry x="730" y="508.8399999999999" width="177.5" height="40" as="geometry" />
        </mxCell>
        <mxCell id="PEW9V024uj19wOXFV4pj-20" style="rounded=0;orthogonalLoop=1;jettySize=auto;html=1;entryX=0.5;entryY=0;entryDx=0;entryDy=0;endArrow=none;endFill=0;exitX=0.5;exitY=1;exitDx=0;exitDy=0;" parent="1" source="PEW9V024uj19wOXFV4pj-9" target="PEW9V024uj19wOXFV4pj-19" edge="1">
          <mxGeometry relative="1" as="geometry">
            <mxPoint x="813.2499999999999" y="578.6100000000001" as="targetPoint" />
          </mxGeometry>
        </mxCell>
        <mxCell id="PEW9V024uj19wOXFV4pj-10" value="" style="rounded=0;whiteSpace=wrap;html=1;fillColor=none;" parent="1" vertex="1">
          <mxGeometry x="737.5" y="514.3399999999999" width="160" height="29" as="geometry" />
        </mxCell>
        <mxCell id="PEW9V024uj19wOXFV4pj-13" style="rounded=0;orthogonalLoop=1;jettySize=auto;html=1;entryX=0.5;entryY=1;entryDx=0;entryDy=0;endArrow=none;endFill=0;" parent="1" source="PEW9V024uj19wOXFV4pj-12" target="PEW9V024uj19wOXFV4pj-9" edge="1">
          <mxGeometry relative="1" as="geometry" />
        </mxCell>
        <mxCell id="PEW9V024uj19wOXFV4pj-12" value="pontos" style="ellipse;whiteSpace=wrap;html=1;" parent="1" vertex="1">
          <mxGeometry x="870" y="585.62" width="44.55" height="28.66" as="geometry" />
        </mxCell>
        <mxCell id="PEW9V024uj19wOXFV4pj-17" value="&lt;u&gt;id_partida&lt;br&gt;&lt;/u&gt;(FK)&lt;u&gt;&lt;br&gt;&lt;/u&gt;" style="ellipse;whiteSpace=wrap;html=1;" parent="1" vertex="1">
          <mxGeometry x="711.25" y="578.61" width="77.5" height="42.68" as="geometry" />
        </mxCell>
        <mxCell id="PEW9V024uj19wOXFV4pj-19" value="&lt;u&gt;id_jogador&lt;br&gt;&lt;/u&gt;(FK)&lt;u&gt;&lt;br&gt;&lt;/u&gt;" style="ellipse;whiteSpace=wrap;html=1;" parent="1" vertex="1">
          <mxGeometry x="795.45" y="578.61" width="67.5" height="42.68" as="geometry" />
        </mxCell>
        <mxCell id="H9_7_KovDlHxRIFXxLMO-6" style="rounded=0;orthogonalLoop=1;jettySize=auto;html=1;entryX=0.5;entryY=1;entryDx=0;entryDy=0;endArrow=none;endFill=0;exitX=0.5;exitY=0;exitDx=0;exitDy=0;" parent="1" source="H9_7_KovDlHxRIFXxLMO-2" target="H9_7_KovDlHxRIFXxLMO-5" edge="1">
          <mxGeometry relative="1" as="geometry" />
        </mxCell>
        <mxCell id="Y0LaDZVLSumVNecySCVG-3" style="rounded=0;orthogonalLoop=1;jettySize=auto;html=1;entryX=0.5;entryY=1;entryDx=0;entryDy=0;endArrow=none;endFill=0;exitX=0.5;exitY=0;exitDx=0;exitDy=0;" parent="1" source="H9_7_KovDlHxRIFXxLMO-2" target="Y0LaDZVLSumVNecySCVG-2" edge="1">
          <mxGeometry relative="1" as="geometry" />
        </mxCell>
        <mxCell id="Y0LaDZVLSumVNecySCVG-5" style="rounded=0;orthogonalLoop=1;jettySize=auto;html=1;entryX=0.5;entryY=1;entryDx=0;entryDy=0;exitX=0.5;exitY=0;exitDx=0;exitDy=0;endArrow=none;endFill=0;" parent="1" source="H9_7_KovDlHxRIFXxLMO-2" target="Y0LaDZVLSumVNecySCVG-4" edge="1">
          <mxGeometry relative="1" as="geometry" />
        </mxCell>
        <mxCell id="H9_7_KovDlHxRIFXxLMO-2" value="AMIGOS" style="rounded=0;whiteSpace=wrap;html=1;" parent="1" vertex="1">
          <mxGeometry x="254" y="-65" width="120" height="40" as="geometry" />
        </mxCell>
        <mxCell id="H9_7_KovDlHxRIFXxLMO-7" value="N" style="rounded=0;orthogonalLoop=1;jettySize=auto;html=1;entryX=0.5;entryY=1;entryDx=0;entryDy=0;endArrow=none;endFill=0;" parent="1" source="H9_7_KovDlHxRIFXxLMO-3" target="H9_7_KovDlHxRIFXxLMO-2" edge="1">
          <mxGeometry relative="1" as="geometry" />
        </mxCell>
        <mxCell id="H9_7_KovDlHxRIFXxLMO-3" value="↑&lt;br&gt;tem" style="rhombus;whiteSpace=wrap;html=1;" parent="1" vertex="1">
          <mxGeometry x="274.25" y="30" width="80" height="80" as="geometry" />
        </mxCell>
        <mxCell id="H9_7_KovDlHxRIFXxLMO-5" value="&lt;u&gt;id_jogador_destino &lt;/u&gt;(FK)" style="ellipse;whiteSpace=wrap;html=1;" parent="1" vertex="1">
          <mxGeometry x="253.93" y="-160" width="120" height="50" as="geometry" />
        </mxCell>
        <mxCell id="Y0LaDZVLSumVNecySCVG-2" value="&lt;u&gt;id_jogador_pedinte &lt;/u&gt;(FK)" style="ellipse;whiteSpace=wrap;html=1;" parent="1" vertex="1">
          <mxGeometry x="131" y="-160" width="120" height="50" as="geometry" />
        </mxCell>
        <mxCell id="Y0LaDZVLSumVNecySCVG-4" value="aceite" style="ellipse;whiteSpace=wrap;html=1;" parent="1" vertex="1">
          <mxGeometry x="380" y="-150" width="40" height="30" as="geometry" />
        </mxCell>
        <mxCell id="Y0LaDZVLSumVNecySCVG-7" style="rounded=0;orthogonalLoop=1;jettySize=auto;html=1;entryX=0.5;entryY=1;entryDx=0;entryDy=0;endArrow=none;endFill=0;exitX=0.5;exitY=0;exitDx=0;exitDy=0;" parent="1" source="Y0LaDZVLSumVNecySCVG-6" target="o9kefqiTdvMdUMg-I6oA-1" edge="1">
          <mxGeometry relative="1" as="geometry" />
        </mxCell>
        <mxCell id="Y0LaDZVLSumVNecySCVG-21" value="N" style="edgeLabel;html=1;align=center;verticalAlign=middle;resizable=0;points=[];" parent="Y0LaDZVLSumVNecySCVG-7" vertex="1" connectable="0">
          <mxGeometry x="0.0726" relative="1" as="geometry">
            <mxPoint as="offset" />
          </mxGeometry>
        </mxCell>
        <mxCell id="Y0LaDZVLSumVNecySCVG-9" style="rounded=0;orthogonalLoop=1;jettySize=auto;html=1;entryX=0.5;entryY=0;entryDx=0;entryDy=0;endArrow=none;endFill=0;exitX=0.5;exitY=1;exitDx=0;exitDy=0;" parent="1" source="Y0LaDZVLSumVNecySCVG-6" target="Y0LaDZVLSumVNecySCVG-8" edge="1">
          <mxGeometry relative="1" as="geometry" />
        </mxCell>
        <mxCell id="Y0LaDZVLSumVNecySCVG-22" value="N" style="edgeLabel;html=1;align=center;verticalAlign=middle;resizable=0;points=[];" parent="Y0LaDZVLSumVNecySCVG-9" vertex="1" connectable="0">
          <mxGeometry x="-0.2269" y="1" relative="1" as="geometry">
            <mxPoint as="offset" />
          </mxGeometry>
        </mxCell>
        <mxCell id="Y0LaDZVLSumVNecySCVG-6" value="cria&lt;br&gt;↓" style="rhombus;whiteSpace=wrap;html=1;" parent="1" vertex="1">
          <mxGeometry x="293.93" y="360" width="80" height="80" as="geometry" />
        </mxCell>
        <mxCell id="Y0LaDZVLSumVNecySCVG-10" style="rounded=0;orthogonalLoop=1;jettySize=auto;html=1;endArrow=none;endFill=0;entryX=1;entryY=0.5;entryDx=0;entryDy=0;exitX=0;exitY=0.5;exitDx=0;exitDy=0;" parent="1" source="Y0LaDZVLSumVNecySCVG-8" target="Y0LaDZVLSumVNecySCVG-11" edge="1">
          <mxGeometry relative="1" as="geometry">
            <mxPoint x="398.01" y="499.3600000000002" as="targetPoint" />
          </mxGeometry>
        </mxCell>
        <mxCell id="Y0LaDZVLSumVNecySCVG-14" style="rounded=0;orthogonalLoop=1;jettySize=auto;html=1;entryX=1;entryY=0.5;entryDx=0;entryDy=0;endArrow=none;endFill=0;exitX=0;exitY=0.5;exitDx=0;exitDy=0;" parent="1" source="Y0LaDZVLSumVNecySCVG-8" target="Y0LaDZVLSumVNecySCVG-13" edge="1">
          <mxGeometry relative="1" as="geometry">
            <mxPoint x="358.01" y="509.3600000000002" as="sourcePoint" />
          </mxGeometry>
        </mxCell>
        <mxCell id="Y0LaDZVLSumVNecySCVG-18" value="1" style="edgeStyle=orthogonalEdgeStyle;rounded=0;orthogonalLoop=1;jettySize=auto;html=1;entryX=0.505;entryY=0.049;entryDx=0;entryDy=0;entryPerimeter=0;endArrow=none;endFill=0;" parent="1" source="Y0LaDZVLSumVNecySCVG-8" target="Y0LaDZVLSumVNecySCVG-17" edge="1">
          <mxGeometry relative="1" as="geometry" />
        </mxCell>
        <mxCell id="Y0LaDZVLSumVNecySCVG-30" style="rounded=0;orthogonalLoop=1;jettySize=auto;html=1;entryX=1;entryY=0.5;entryDx=0;entryDy=0;endArrow=none;endFill=0;exitX=0;exitY=0.5;exitDx=0;exitDy=0;" parent="1" source="Y0LaDZVLSumVNecySCVG-8" target="Y0LaDZVLSumVNecySCVG-29" edge="1">
          <mxGeometry relative="1" as="geometry" />
        </mxCell>
        <mxCell id="Y0LaDZVLSumVNecySCVG-8" value="CHAT_GROUP" style="rounded=0;whiteSpace=wrap;html=1;" parent="1" vertex="1">
          <mxGeometry x="273.92999999999995" y="492.4000000000002" width="120" height="40" as="geometry" />
        </mxCell>
        <mxCell id="Y0LaDZVLSumVNecySCVG-11" value="&lt;u&gt;id&lt;/u&gt;" style="ellipse;whiteSpace=wrap;html=1;" parent="1" vertex="1">
          <mxGeometry x="153.99" y="452.00000000000006" width="31.25" height="28" as="geometry" />
        </mxCell>
        <mxCell id="Y0LaDZVLSumVNecySCVG-13" value="id_criador (FK)" style="ellipse;whiteSpace=wrap;html=1;" parent="1" vertex="1">
          <mxGeometry x="121.25" y="500.8600000000002" width="96.74" height="30" as="geometry" />
        </mxCell>
        <mxCell id="Y0LaDZVLSumVNecySCVG-16" style="rounded=0;orthogonalLoop=1;jettySize=auto;html=1;entryX=0;entryY=0.5;entryDx=0;entryDy=0;endArrow=none;endFill=0;exitX=1;exitY=0.5;exitDx=0;exitDy=0;" parent="1" source="Y0LaDZVLSumVNecySCVG-15" target="Y0LaDZVLSumVNecySCVG-8" edge="1">
          <mxGeometry relative="1" as="geometry" />
        </mxCell>
        <mxCell id="Y0LaDZVLSumVNecySCVG-15" value="participantes [ ]" style="ellipse;whiteSpace=wrap;html=1;" parent="1" vertex="1">
          <mxGeometry x="124.24000000000001" y="530.8600000000001" width="103.76" height="25" as="geometry" />
        </mxCell>
        <mxCell id="Y0LaDZVLSumVNecySCVG-20" value="N" style="rounded=0;orthogonalLoop=1;jettySize=auto;html=1;entryX=0.5;entryY=0;entryDx=0;entryDy=0;endArrow=none;endFill=0;strokeWidth=1;" parent="1" source="Y0LaDZVLSumVNecySCVG-17" target="Y0LaDZVLSumVNecySCVG-19" edge="1">
          <mxGeometry relative="1" as="geometry" />
        </mxCell>
        <mxCell id="Y0LaDZVLSumVNecySCVG-17" value="tem&lt;br&gt;↓" style="rhombus;whiteSpace=wrap;html=1;" parent="1" vertex="1">
          <mxGeometry x="293.92999999999995" y="588.8500000000001" width="80" height="80" as="geometry" />
        </mxCell>
        <mxCell id="Y0LaDZVLSumVNecySCVG-26" style="rounded=0;orthogonalLoop=1;jettySize=auto;html=1;entryX=1;entryY=0.5;entryDx=0;entryDy=0;endArrow=none;endFill=0;exitX=0;exitY=0.5;exitDx=0;exitDy=0;" parent="1" source="Y0LaDZVLSumVNecySCVG-19" target="Y0LaDZVLSumVNecySCVG-23" edge="1">
          <mxGeometry relative="1" as="geometry" />
        </mxCell>
        <mxCell id="Y0LaDZVLSumVNecySCVG-19" value="CHATS" style="rounded=0;whiteSpace=wrap;html=1;" parent="1" vertex="1">
          <mxGeometry x="273.92999999999995" y="715.3600000000001" width="120" height="40" as="geometry" />
        </mxCell>
        <mxCell id="Y0LaDZVLSumVNecySCVG-23" value="dateAndTime" style="ellipse;whiteSpace=wrap;html=1;" parent="1" vertex="1">
          <mxGeometry x="138.45" y="728.0000000000001" width="89.37" height="27.36" as="geometry" />
        </mxCell>
        <mxCell id="Y0LaDZVLSumVNecySCVG-27" style="rounded=0;orthogonalLoop=1;jettySize=auto;html=1;entryX=0;entryY=0.5;entryDx=0;entryDy=0;endArrow=none;endFill=0;exitX=1;exitY=0.5;exitDx=0;exitDy=0;" parent="1" source="Y0LaDZVLSumVNecySCVG-25" target="Y0LaDZVLSumVNecySCVG-19" edge="1">
          <mxGeometry relative="1" as="geometry" />
        </mxCell>
        <mxCell id="Y0LaDZVLSumVNecySCVG-25" value="mensagem" style="ellipse;whiteSpace=wrap;html=1;" parent="1" vertex="1">
          <mxGeometry x="138.45" y="755.3600000000001" width="89.37" height="20" as="geometry" />
        </mxCell>
        <mxCell id="Y0LaDZVLSumVNecySCVG-29" value="nome" style="ellipse;whiteSpace=wrap;html=1;" parent="1" vertex="1">
          <mxGeometry x="138.45000000000002" y="479.5700000000001" width="61.25" height="20.86" as="geometry" />
        </mxCell>
        <mxCell id="Y0LaDZVLSumVNecySCVG-32" style="rounded=0;orthogonalLoop=1;jettySize=auto;html=1;entryX=0;entryY=0.5;entryDx=0;entryDy=0;endArrow=none;endFill=0;exitX=1;exitY=0.5;exitDx=0;exitDy=0;" parent="1" source="Y0LaDZVLSumVNecySCVG-31" target="Y0LaDZVLSumVNecySCVG-19" edge="1">
          <mxGeometry relative="1" as="geometry" />
        </mxCell>
        <mxCell id="Y0LaDZVLSumVNecySCVG-31" value="id_group&amp;nbsp; (FK)" style="ellipse;whiteSpace=wrap;html=1;" parent="1" vertex="1">
          <mxGeometry x="135.35" y="700" width="95.57" height="28" as="geometry" />
        </mxCell>
        <mxCell id="Y0LaDZVLSumVNecySCVG-36" value="AMIGOS" style="rounded=0;whiteSpace=wrap;html=1;" parent="1" vertex="1">
          <mxGeometry x="259.88" y="-60" width="108.24" height="30" as="geometry" />
        </mxCell>
        <mxCell id="Y0LaDZVLSumVNecySCVG-38" value="PARTIDA" style="rounded=0;whiteSpace=wrap;html=1;" parent="1" vertex="1">
          <mxGeometry x="1059.9999999999998" y="513.34" width="120" height="30" as="geometry" />
        </mxCell>
        <mxCell id="Y0LaDZVLSumVNecySCVG-46" value="&lt;u&gt;id_jogador&lt;/u&gt;&lt;br&gt;(FK)" style="ellipse;whiteSpace=wrap;html=1;" parent="1" vertex="1">
          <mxGeometry x="700" y="95" width="75.57" height="40" as="geometry" />
        </mxCell>
        <mxCell id="Y0LaDZVLSumVNecySCVG-47" value="" style="rounded=0;orthogonalLoop=1;jettySize=auto;html=1;exitX=0.5;exitY=0;exitDx=0;exitDy=0;endArrow=none;endFill=0;entryX=0.5;entryY=1;entryDx=0;entryDy=0;" parent="1" source="Y0LaDZVLSumVNecySCVG-46" target="o9kefqiTdvMdUMg-I6oA-91" edge="1">
          <mxGeometry relative="1" as="geometry">
            <mxPoint x="752.38" y="-40" as="sourcePoint" />
            <mxPoint x="782.38" y="20" as="targetPoint" />
          </mxGeometry>
        </mxCell>
        <mxCell id="Y0LaDZVLSumVNecySCVG-48" value="COMPRA" style="rounded=0;whiteSpace=wrap;html=1;" parent="1" vertex="1">
          <mxGeometry x="745.51" y="240" width="120" height="40" as="geometry" />
        </mxCell>
        <mxCell id="Y0LaDZVLSumVNecySCVG-54" style="rounded=0;orthogonalLoop=1;jettySize=auto;html=1;entryX=0;entryY=0.5;entryDx=0;entryDy=0;endArrow=none;endFill=0;exitX=1;exitY=0.5;exitDx=0;exitDy=0;" parent="1" source="Y0LaDZVLSumVNecySCVG-38" target="o9kefqiTdvMdUMg-I6oA-41" edge="1">
          <mxGeometry relative="1" as="geometry">
            <mxPoint x="1175.56" y="523.9" as="sourcePoint" />
            <mxPoint x="1265.56" y="523.9" as="targetPoint" />
          </mxGeometry>
        </mxCell>
        <mxCell id="Y0LaDZVLSumVNecySCVG-55" style="rounded=0;orthogonalLoop=1;jettySize=auto;html=1;entryX=0;entryY=0.5;entryDx=0;entryDy=0;endArrow=none;endFill=0;exitX=1;exitY=0.5;exitDx=0;exitDy=0;" parent="1" source="Y0LaDZVLSumVNecySCVG-38" target="o9kefqiTdvMdUMg-I6oA-46" edge="1">
          <mxGeometry relative="1" as="geometry">
            <mxPoint x="1185.56" y="542.29" as="sourcePoint" />
            <mxPoint x="1283.56" y="510.28999999999996" as="targetPoint" />
          </mxGeometry>
        </mxCell>
        <mxCell id="Y0LaDZVLSumVNecySCVG-56" style="rounded=0;orthogonalLoop=1;jettySize=auto;html=1;entryX=0;entryY=0.5;entryDx=0;entryDy=0;endArrow=none;endFill=0;exitX=1;exitY=0.5;exitDx=0;exitDy=0;" parent="1" source="Y0LaDZVLSumVNecySCVG-38" target="o9kefqiTdvMdUMg-I6oA-43" edge="1">
          <mxGeometry relative="1" as="geometry">
            <mxPoint x="1185.56" y="542.29" as="sourcePoint" />
            <mxPoint x="1253.56" y="549.29" as="targetPoint" />
          </mxGeometry>
        </mxCell>
        <mxCell id="Y0LaDZVLSumVNecySCVG-57" style="rounded=0;orthogonalLoop=1;jettySize=auto;html=1;entryX=0;entryY=0.5;entryDx=0;entryDy=0;endArrow=none;endFill=0;exitX=1;exitY=0.5;exitDx=0;exitDy=0;" parent="1" source="Y0LaDZVLSumVNecySCVG-38" target="Y0LaDZVLSumVNecySCVG-59" edge="1">
          <mxGeometry relative="1" as="geometry">
            <mxPoint x="1185.56" y="542.29" as="sourcePoint" />
            <mxPoint x="1263.06" y="601.3299999999999" as="targetPoint" />
          </mxGeometry>
        </mxCell>
        <mxCell id="Y0LaDZVLSumVNecySCVG-58" value="regiao" style="ellipse;whiteSpace=wrap;html=1;" parent="1" vertex="1">
          <mxGeometry x="1260.56" y="571.29" width="55" height="30" as="geometry" />
        </mxCell>
        <mxCell id="Y0LaDZVLSumVNecySCVG-59" value="" style="ellipse;whiteSpace=wrap;html=1;fillColor=none;" parent="1" vertex="1">
          <mxGeometry x="1254.31" y="566.29" width="67.5" height="40" as="geometry" />
        </mxCell>
        <mxCell id="Y0LaDZVLSumVNecySCVG-64" value="N" style="edgeStyle=orthogonalEdgeStyle;rounded=0;orthogonalLoop=1;jettySize=auto;html=1;endArrow=none;endFill=0;entryX=1;entryY=0.5;entryDx=0;entryDy=0;" parent="1" source="Y0LaDZVLSumVNecySCVG-63" target="Y0LaDZVLSumVNecySCVG-48" edge="1">
          <mxGeometry relative="1" as="geometry">
            <mxPoint x="870" y="260" as="targetPoint" />
          </mxGeometry>
        </mxCell>
        <mxCell id="Y0LaDZVLSumVNecySCVG-67" value="1" style="edgeStyle=orthogonalEdgeStyle;rounded=0;orthogonalLoop=1;jettySize=auto;html=1;entryX=0;entryY=0.5;entryDx=0;entryDy=0;endArrow=none;endFill=0;" parent="1" source="Y0LaDZVLSumVNecySCVG-63" target="o9kefqiTdvMdUMg-I6oA-21" edge="1">
          <mxGeometry relative="1" as="geometry">
            <mxPoint x="1030" y="260" as="targetPoint" />
          </mxGeometry>
        </mxCell>
        <mxCell id="Y0LaDZVLSumVNecySCVG-63" value="compra-se&lt;br&gt;→" style="rhombus;whiteSpace=wrap;html=1;" parent="1" vertex="1">
          <mxGeometry x="929.51" y="220" width="80" height="80" as="geometry" />
        </mxCell>
        <mxCell id="Y0LaDZVLSumVNecySCVG-66" value="" style="edgeStyle=orthogonalEdgeStyle;rounded=0;orthogonalLoop=1;jettySize=auto;html=1;entryX=0;entryY=0.5;entryDx=0;entryDy=0;endArrow=none;endFill=0;" parent="1" target="o9kefqiTdvMdUMg-I6oA-87" edge="1">
          <mxGeometry relative="1" as="geometry">
            <mxPoint x="535.31" y="40" as="sourcePoint" />
            <mxPoint x="656.89" y="40" as="targetPoint" />
          </mxGeometry>
        </mxCell>
        <mxCell id="o9kefqiTdvMdUMg-I6oA-87" value="ganha&lt;br&gt;→" style="rhombus;whiteSpace=wrap;html=1;" parent="1" vertex="1">
          <mxGeometry x="525.64" width="80" height="80" as="geometry" />
        </mxCell>
        <mxCell id="Y0LaDZVLSumVNecySCVG-77" style="rounded=0;orthogonalLoop=1;jettySize=auto;html=1;entryX=0.5;entryY=1;entryDx=0;entryDy=0;endArrow=none;endFill=0;exitX=0.5;exitY=0;exitDx=0;exitDy=0;" parent="1" source="Y0LaDZVLSumVNecySCVG-69" target="Y0LaDZVLSumVNecySCVG-75" edge="1">
          <mxGeometry relative="1" as="geometry" />
        </mxCell>
        <mxCell id="Y0LaDZVLSumVNecySCVG-69" value="CRACHA" style="rounded=0;whiteSpace=wrap;html=1;" parent="1" vertex="1">
          <mxGeometry x="946.6700000000001" y="-130" width="120" height="40" as="geometry" />
        </mxCell>
        <mxCell id="Y0LaDZVLSumVNecySCVG-73" value="N" style="rounded=0;orthogonalLoop=1;jettySize=auto;html=1;entryX=1;entryY=0.5;entryDx=0;entryDy=0;endArrow=none;endFill=0;exitX=0;exitY=0.5;exitDx=0;exitDy=0;" parent="1" source="Y0LaDZVLSumVNecySCVG-72" target="Y0LaDZVLSumVNecySCVG-69" edge="1">
          <mxGeometry relative="1" as="geometry" />
        </mxCell>
        <mxCell id="Y0LaDZVLSumVNecySCVG-72" value="existem&lt;br&gt;↑" style="rhombus;whiteSpace=wrap;html=1;" parent="1" vertex="1">
          <mxGeometry x="1214.57" y="-150" width="80" height="80" as="geometry" />
        </mxCell>
        <mxCell id="Y0LaDZVLSumVNecySCVG-75" value="&lt;u&gt;nome&lt;/u&gt;" style="ellipse;whiteSpace=wrap;html=1;" parent="1" vertex="1">
          <mxGeometry x="941.6300000000001" y="-210" width="40" height="30" as="geometry" />
        </mxCell>
        <mxCell id="Y0LaDZVLSumVNecySCVG-76" value="&lt;u&gt;id_jogo&lt;br&gt;&lt;/u&gt;(FK)&lt;u&gt;&lt;br&gt;&lt;/u&gt;" style="ellipse;whiteSpace=wrap;html=1;" parent="1" vertex="1">
          <mxGeometry x="878.38" y="-215" width="61.63" height="40" as="geometry" />
        </mxCell>
        <mxCell id="Y0LaDZVLSumVNecySCVG-78" style="rounded=0;orthogonalLoop=1;jettySize=auto;html=1;entryX=0.5;entryY=1;entryDx=0;entryDy=0;endArrow=none;endFill=0;exitX=0.5;exitY=0;exitDx=0;exitDy=0;" parent="1" source="Y0LaDZVLSumVNecySCVG-69" target="Y0LaDZVLSumVNecySCVG-76" edge="1">
          <mxGeometry relative="1" as="geometry">
            <mxPoint x="1010" y="-140" as="sourcePoint" />
            <mxPoint x="1026" y="-170" as="targetPoint" />
          </mxGeometry>
        </mxCell>
        <mxCell id="Y0LaDZVLSumVNecySCVG-79" value="pontosAssociados" style="ellipse;whiteSpace=wrap;html=1;" parent="1" vertex="1">
          <mxGeometry x="981.6300000000001" y="-210" width="113.33" height="30" as="geometry" />
        </mxCell>
        <mxCell id="Y0LaDZVLSumVNecySCVG-80" style="rounded=0;orthogonalLoop=1;jettySize=auto;html=1;entryX=0.5;entryY=1;entryDx=0;entryDy=0;endArrow=none;endFill=0;exitX=0.5;exitY=0;exitDx=0;exitDy=0;" parent="1" source="Y0LaDZVLSumVNecySCVG-69" target="Y0LaDZVLSumVNecySCVG-79" edge="1">
          <mxGeometry relative="1" as="geometry">
            <mxPoint x="1017" y="-120" as="sourcePoint" />
            <mxPoint x="1017" y="-170" as="targetPoint" />
          </mxGeometry>
        </mxCell>
        <mxCell id="Y0LaDZVLSumVNecySCVG-84" value="N" style="rounded=0;orthogonalLoop=1;jettySize=auto;html=1;entryX=0.5;entryY=0;entryDx=0;entryDy=0;endArrow=none;endFill=0;exitX=0.5;exitY=1;exitDx=0;exitDy=0;" parent="1" source="Y0LaDZVLSumVNecySCVG-82" target="o9kefqiTdvMdUMg-I6oA-91" edge="1">
          <mxGeometry relative="1" as="geometry" />
        </mxCell>
        <mxCell id="Y0LaDZVLSumVNecySCVG-85" value="1" style="edgeStyle=orthogonalEdgeStyle;rounded=0;orthogonalLoop=1;jettySize=auto;html=1;entryX=0;entryY=0.5;entryDx=0;entryDy=0;endArrow=none;endFill=0;" parent="1" source="Y0LaDZVLSumVNecySCVG-82" target="Y0LaDZVLSumVNecySCVG-69" edge="1">
          <mxGeometry relative="1" as="geometry" />
        </mxCell>
        <mxCell id="Y0LaDZVLSumVNecySCVG-82" value="referem&lt;br&gt;→" style="rhombus;whiteSpace=wrap;html=1;" parent="1" vertex="1">
          <mxGeometry x="765.51" y="-150" width="80" height="80" as="geometry" />
        </mxCell>
        <mxCell id="Y0LaDZVLSumVNecySCVG-90" value="&lt;u&gt;id_jogo&lt;br&gt;&lt;/u&gt;(FK)&lt;u&gt;&lt;br&gt;&lt;/u&gt;" style="ellipse;whiteSpace=wrap;html=1;" parent="1" vertex="1">
          <mxGeometry x="890" y="310" width="59.88" height="40" as="geometry" />
        </mxCell>
        <mxCell id="Y0LaDZVLSumVNecySCVG-91" value="&lt;u&gt;id_jogador&lt;/u&gt;&lt;br&gt;(FK)" style="ellipse;whiteSpace=wrap;html=1;" parent="1" vertex="1">
          <mxGeometry x="814.37" y="310" width="75.63" height="40" as="geometry" />
        </mxCell>
        <mxCell id="Y0LaDZVLSumVNecySCVG-92" style="rounded=0;orthogonalLoop=1;jettySize=auto;html=1;entryX=0.5;entryY=0;entryDx=0;entryDy=0;endArrow=none;endFill=0;exitX=0.5;exitY=1;exitDx=0;exitDy=0;" parent="1" source="Y0LaDZVLSumVNecySCVG-48" target="Y0LaDZVLSumVNecySCVG-91" edge="1">
          <mxGeometry relative="1" as="geometry">
            <mxPoint x="816" y="290" as="sourcePoint" />
            <mxPoint x="804" y="325" as="targetPoint" />
          </mxGeometry>
        </mxCell>
        <mxCell id="Y0LaDZVLSumVNecySCVG-93" style="rounded=0;orthogonalLoop=1;jettySize=auto;html=1;entryX=0.5;entryY=0;entryDx=0;entryDy=0;endArrow=none;endFill=0;exitX=0.5;exitY=1;exitDx=0;exitDy=0;" parent="1" source="Y0LaDZVLSumVNecySCVG-48" target="Y0LaDZVLSumVNecySCVG-90" edge="1">
          <mxGeometry relative="1" as="geometry">
            <mxPoint x="816" y="290" as="sourcePoint" />
            <mxPoint x="856" y="320" as="targetPoint" />
          </mxGeometry>
        </mxCell>
        <mxCell id="fUptUus7FQkbC4dCLPxE-1" value="id_jogo" style="ellipse;whiteSpace=wrap;html=1;" parent="1" vertex="1">
          <mxGeometry x="1254.31" y="475" width="60" height="30" as="geometry" />
        </mxCell>
        <mxCell id="fUptUus7FQkbC4dCLPxE-2" style="rounded=0;orthogonalLoop=1;jettySize=auto;html=1;entryX=0;entryY=0.5;entryDx=0;entryDy=0;endArrow=none;endFill=0;exitX=1;exitY=0.5;exitDx=0;exitDy=0;" parent="1" source="Y0LaDZVLSumVNecySCVG-38" target="fUptUus7FQkbC4dCLPxE-1" edge="1">
          <mxGeometry relative="1" as="geometry">
            <mxPoint x="1190" y="538" as="sourcePoint" />
            <mxPoint x="1253" y="531" as="targetPoint" />
          </mxGeometry>
        </mxCell>
        <mxCell id="fUptUus7FQkbC4dCLPxE-3" value="totalPartidas" style="ellipse;whiteSpace=wrap;html=1;" parent="1" vertex="1">
          <mxGeometry x="1255.81" y="275" width="85.43" height="25" as="geometry" />
        </mxCell>
        <mxCell id="fUptUus7FQkbC4dCLPxE-4" style="rounded=0;orthogonalLoop=1;jettySize=auto;html=1;entryX=0;entryY=0.5;entryDx=0;entryDy=0;endArrow=none;endFill=0;exitX=1;exitY=0.5;exitDx=0;exitDy=0;" parent="1" source="o9kefqiTdvMdUMg-I6oA-21" target="fUptUus7FQkbC4dCLPxE-3" edge="1">
          <mxGeometry relative="1" as="geometry">
            <mxPoint x="1208.96" y="260" as="sourcePoint" />
            <mxPoint x="1283.96" y="300" as="targetPoint" />
          </mxGeometry>
        </mxCell>
        <mxCell id="fUptUus7FQkbC4dCLPxE-5" value="numJogadoresCompraram" style="ellipse;whiteSpace=wrap;html=1;" parent="1" vertex="1">
          <mxGeometry x="1227.59" y="325" width="155.69" height="25" as="geometry" />
        </mxCell>
        <mxCell id="fUptUus7FQkbC4dCLPxE-6" style="rounded=0;orthogonalLoop=1;jettySize=auto;html=1;endArrow=none;endFill=0;entryX=0;entryY=0.5;entryDx=0;entryDy=0;" parent="1" target="fUptUus7FQkbC4dCLPxE-5" edge="1">
          <mxGeometry relative="1" as="geometry">
            <mxPoint x="1180" y="260" as="sourcePoint" />
            <mxPoint x="1200" y="350" as="targetPoint" />
          </mxGeometry>
        </mxCell>
        <mxCell id="fUptUus7FQkbC4dCLPxE-8" value="totalPontos" style="ellipse;whiteSpace=wrap;html=1;" parent="1" vertex="1">
          <mxGeometry x="1267.84" y="300" width="65.69" height="25" as="geometry" />
        </mxCell>
        <mxCell id="fUptUus7FQkbC4dCLPxE-9" style="rounded=0;orthogonalLoop=1;jettySize=auto;html=1;endArrow=none;endFill=0;entryX=0;entryY=0.5;entryDx=0;entryDy=0;exitX=1;exitY=0.5;exitDx=0;exitDy=0;" parent="1" source="o9kefqiTdvMdUMg-I6oA-21" target="fUptUus7FQkbC4dCLPxE-8" edge="1">
          <mxGeometry relative="1" as="geometry">
            <mxPoint x="1190" y="270" as="sourcePoint" />
            <mxPoint x="1238" y="353" as="targetPoint" />
          </mxGeometry>
        </mxCell>
        <mxCell id="fUptUus7FQkbC4dCLPxE-10" value="ESTATISTICA" style="rounded=0;whiteSpace=wrap;html=1;" parent="1" vertex="1">
          <mxGeometry x="433.89" y="492.40000000000015" width="120" height="40" as="geometry" />
        </mxCell>
        <mxCell id="fUptUus7FQkbC4dCLPxE-11" value="tem&lt;br&gt;↓" style="rhombus;whiteSpace=wrap;html=1;" parent="1" vertex="1">
          <mxGeometry x="453.89" y="360" width="80" height="80" as="geometry" />
        </mxCell>
        <mxCell id="fUptUus7FQkbC4dCLPxE-12" value="" style="rounded=0;orthogonalLoop=1;jettySize=auto;html=1;entryX=0.5;entryY=1;entryDx=0;entryDy=0;endArrow=none;endFill=0;exitX=0.5;exitY=0;exitDx=0;exitDy=0;" parent="1" source="fUptUus7FQkbC4dCLPxE-11" target="o9kefqiTdvMdUMg-I6oA-1" edge="1">
          <mxGeometry x="-0.0398" y="21" relative="1" as="geometry">
            <mxPoint x="343.89" y="370" as="sourcePoint" />
            <mxPoint x="407.89" y="290" as="targetPoint" />
            <mxPoint as="offset" />
          </mxGeometry>
        </mxCell>
        <mxCell id="fUptUus7FQkbC4dCLPxE-13" value="1" style="edgeLabel;html=1;align=center;verticalAlign=middle;resizable=0;points=[];" parent="fUptUus7FQkbC4dCLPxE-12" vertex="1" connectable="0">
          <mxGeometry x="0.0726" relative="1" as="geometry">
            <mxPoint as="offset" />
          </mxGeometry>
        </mxCell>
        <mxCell id="fUptUus7FQkbC4dCLPxE-14" value="" style="rounded=0;orthogonalLoop=1;jettySize=auto;html=1;entryX=0.5;entryY=1;entryDx=0;entryDy=0;endArrow=none;endFill=0;exitX=0.5;exitY=0;exitDx=0;exitDy=0;" parent="1" source="fUptUus7FQkbC4dCLPxE-10" target="fUptUus7FQkbC4dCLPxE-11" edge="1">
          <mxGeometry x="-0.0398" y="21" relative="1" as="geometry">
            <mxPoint x="570" y="375" as="sourcePoint" />
            <mxPoint x="474" y="290" as="targetPoint" />
            <mxPoint as="offset" />
          </mxGeometry>
        </mxCell>
        <mxCell id="fUptUus7FQkbC4dCLPxE-15" value="1" style="edgeLabel;html=1;align=center;verticalAlign=middle;resizable=0;points=[];" parent="fUptUus7FQkbC4dCLPxE-14" vertex="1" connectable="0">
          <mxGeometry x="0.0726" relative="1" as="geometry">
            <mxPoint as="offset" />
          </mxGeometry>
        </mxCell>
        <mxCell id="fUptUus7FQkbC4dCLPxE-16" value="&lt;u&gt;id_jogador&lt;/u&gt;&lt;br&gt;(FK)" style="ellipse;whiteSpace=wrap;html=1;" parent="1" vertex="1">
          <mxGeometry x="591.75" y="440" width="80" height="40" as="geometry" />
        </mxCell>
        <mxCell id="fUptUus7FQkbC4dCLPxE-17" value="numJogos" style="ellipse;whiteSpace=wrap;html=1;" parent="1" vertex="1">
          <mxGeometry x="601.13" y="484.14000000000016" width="61.25" height="20.86" as="geometry" />
        </mxCell>
        <mxCell id="fUptUus7FQkbC4dCLPxE-18" value="numPartidas" style="ellipse;whiteSpace=wrap;html=1;" parent="1" vertex="1">
          <mxGeometry x="591.75" y="508.8399999999999" width="80" height="20.86" as="geometry" />
        </mxCell>
        <mxCell id="fUptUus7FQkbC4dCLPxE-19" value="totalPontos" style="ellipse;whiteSpace=wrap;html=1;" parent="1" vertex="1">
          <mxGeometry x="596.75" y="532.3999999999999" width="70" height="20.86" as="geometry" />
        </mxCell>
        <mxCell id="fUptUus7FQkbC4dCLPxE-20" style="rounded=0;orthogonalLoop=1;jettySize=auto;html=1;entryX=1;entryY=0.5;entryDx=0;entryDy=0;endArrow=none;endFill=0;exitX=0;exitY=0.5;exitDx=0;exitDy=0;" parent="1" source="fUptUus7FQkbC4dCLPxE-16" target="fUptUus7FQkbC4dCLPxE-10" edge="1">
          <mxGeometry relative="1" as="geometry">
            <mxPoint x="570" y="510" as="targetPoint" />
            <mxPoint x="639" y="480" as="sourcePoint" />
          </mxGeometry>
        </mxCell>
        <mxCell id="fUptUus7FQkbC4dCLPxE-21" style="rounded=0;orthogonalLoop=1;jettySize=auto;html=1;entryX=1;entryY=0.5;entryDx=0;entryDy=0;endArrow=none;endFill=0;exitX=0;exitY=0.5;exitDx=0;exitDy=0;" parent="1" source="fUptUus7FQkbC4dCLPxE-17" target="fUptUus7FQkbC4dCLPxE-10" edge="1">
          <mxGeometry relative="1" as="geometry">
            <mxPoint x="564" y="522" as="targetPoint" />
            <mxPoint x="602" y="475" as="sourcePoint" />
          </mxGeometry>
        </mxCell>
        <mxCell id="fUptUus7FQkbC4dCLPxE-22" style="rounded=0;orthogonalLoop=1;jettySize=auto;html=1;entryX=1;entryY=0.5;entryDx=0;entryDy=0;endArrow=none;endFill=0;exitX=0;exitY=0.5;exitDx=0;exitDy=0;" parent="1" source="fUptUus7FQkbC4dCLPxE-18" target="fUptUus7FQkbC4dCLPxE-10" edge="1">
          <mxGeometry relative="1" as="geometry">
            <mxPoint x="564" y="522" as="targetPoint" />
            <mxPoint x="611" y="505" as="sourcePoint" />
          </mxGeometry>
        </mxCell>
        <mxCell id="fUptUus7FQkbC4dCLPxE-23" style="rounded=0;orthogonalLoop=1;jettySize=auto;html=1;entryX=1;entryY=0.5;entryDx=0;entryDy=0;endArrow=none;endFill=0;exitX=0;exitY=0.5;exitDx=0;exitDy=0;" parent="1" source="fUptUus7FQkbC4dCLPxE-19" target="fUptUus7FQkbC4dCLPxE-10" edge="1">
          <mxGeometry relative="1" as="geometry">
            <mxPoint x="564" y="522" as="targetPoint" />
            <mxPoint x="602" y="529" as="sourcePoint" />
          </mxGeometry>
        </mxCell>
        <mxCell id="fUptUus7FQkbC4dCLPxE-24" value="" style="rounded=0;whiteSpace=wrap;html=1;fillColor=none;" parent="1" vertex="1">
          <mxGeometry x="439.46" y="497.9" width="108.87" height="29" as="geometry" />
        </mxCell>
        <mxCell id="fUptUus7FQkbC4dCLPxE-25" value="" style="rounded=0;whiteSpace=wrap;html=1;fillColor=none;" parent="1" vertex="1">
          <mxGeometry x="280" y="721.29" width="110" height="29" as="geometry" />
        </mxCell>
        <mxCell id="XUsPqTZyDlYRG7nBFdsh-1" value="&lt;u&gt;id&lt;/u&gt;" style="ellipse;whiteSpace=wrap;html=1;" parent="1" vertex="1">
          <mxGeometry x="167.35999999999999" y="672" width="31.55" height="28" as="geometry" />
        </mxCell>
        <mxCell id="XUsPqTZyDlYRG7nBFdsh-2" style="rounded=0;orthogonalLoop=1;jettySize=auto;html=1;endArrow=none;endFill=0;exitX=1;exitY=0.5;exitDx=0;exitDy=0;entryX=0;entryY=0.5;entryDx=0;entryDy=0;" parent="1" source="XUsPqTZyDlYRG7nBFdsh-1" target="Y0LaDZVLSumVNecySCVG-19" edge="1">
          <mxGeometry relative="1" as="geometry">
            <mxPoint x="231" y="733" as="sourcePoint" />
            <mxPoint x="270" y="730" as="targetPoint" />
          </mxGeometry>
        </mxCell>
        <mxCell id="ZvvE3brwUSeNYFBJ_7ub-1" value="&lt;div style=&quot;font-size: 16px;&quot;&gt;&lt;font style=&quot;font-size: 16px;&quot;&gt;In a data model, weak entities are those that need an attribute from another entity (i.e. a foreign key) &lt;b&gt;&lt;u&gt;to constitute a unique identifier&lt;/u&gt;&lt;/b&gt;. In other words, the primary key of a weak entity needs to contain a foreign key that relates it to a strong entity&lt;/font&gt;&lt;/div&gt;&lt;div style=&quot;font-size: 16px;&quot;&gt;&lt;font style=&quot;font-size: 16px;&quot;&gt;&lt;br&gt;&lt;/font&gt;&lt;/div&gt;&lt;div style=&quot;font-size: 16px;&quot;&gt;&lt;font style=&quot;font-size: 16px;&quot;&gt;É comum os diagramas Entity Relationship não explicitarem as Foreign Keys, isto é má pratica, porque dificulta a interpretação do diagrama&lt;/font&gt;&lt;/div&gt;&lt;div style=&quot;font-size: 16px;&quot;&gt;&lt;font style=&quot;font-size: 16px;&quot;&gt;&lt;br&gt;&lt;/font&gt;&lt;/div&gt;&lt;div style=&quot;font-size: 16px;&quot;&gt;&lt;font style=&quot;font-size: 16px;&quot;&gt;A sinalização se uma relação como fraca é irrelevante visto que qualquer relação fraca está associada a uma entidade fraca, logo assinalar o losango com dupla linha não informa nada de especial&lt;/font&gt;&lt;/div&gt;" style="text;html=1;strokeColor=none;fillColor=none;align=center;verticalAlign=middle;whiteSpace=wrap;rounded=0;" vertex="1" parent="1">
          <mxGeometry x="380" y="-500" width="550" height="250" as="geometry" />
        </mxCell>
      </root>
    </mxGraphModel>
  </diagram>
</mxfile>
